<svg aria-hidden="true" style="position: absolute; width: 0; height: 0; overflow: hidden;" version="1.1" xmlns="http://www.w3.org/2000/svg" xmlns:xlink="http://www.w3.org/1999/xlink">
<defs>
<symbol id="icon-icon-close" viewBox="0 0 32 32">
<path d="M0 0h32v32h-32v-32z"></path>
<path d="M-2792-8800h4756c53.019 0 96 42.981 96 96v9392c0 53.019-42.981 96-96 96h-4756c-53.019 0-96-42.981-96-96v-9392c0-53.019 42.981-96 96-96z"></path>
<path fill="#e7e9fc" style="fill: var(--color3, #e7e9fc)" d="M64 16c0 26.51-21.49 48-48 48s-48-21.49-48-48c0-26.51 21.49-48 48-48s48 21.49 48 48z"></path>
<path fill="none" stroke="#000" style="stroke: var(--color4, #000)" stroke-linejoin="miter" stroke-linecap="butt" stroke-miterlimit="4" stroke-width="4" d="M62 16c0 25.405-20.595 46-46 46s-46-20.595-46-46c0-25.405 20.595-46 46-46s46 20.595 46 46z"></path>
<path fill="#2e2f42" style="fill: var(--color5, #2e2f42)" d="M32 3.223l-3.223-3.223-12.777 12.777-12.777-12.777-3.223 3.223 12.777 12.777-12.777 12.777 3.223 3.223 12.777-12.777 12.777 12.777 3.223-3.223-12.777-12.777 12.777-12.777z"></path>
<path fill="none" stroke="#9747ff" style="stroke: var(--color6, #9747ff)" stroke-linejoin="miter" stroke-linecap="butt" stroke-miterlimit="4" stroke-width="4" d="M-92-110h216c9.941 0 18 8.059 18 18v392c0 9.941-8.059 18-18 18h-216c-9.941 0-18-8.059-18-18v-392c0-9.941 8.059-18 18-18z"></path>
</symbol>
<symbol id="icon-client-6" viewBox="0 0 61 32">
<path d="M31.486 15.657c-0.274-0.364-0.404-0.794-0.373-1.227v-1.779c0-0.545 0.124-0.96 0.371-1.243s0.672-0.425 1.275-0.423c0.566 0 0.968 0.121 1.206 0.362 0.259 0.308 0.385 0.684 0.356 1.064v0.418h-1.013v-0.423c0.004-0.139-0.006-0.277-0.029-0.414-0.015-0.094-0.066-0.181-0.145-0.246-0.104-0.071-0.235-0.105-0.367-0.096-0.139-0.009-0.276 0.027-0.386 0.101-0.088 0.073-0.147 0.168-0.168 0.271-0.029 0.145-0.042 0.292-0.040 0.44v2.159c-0.016 0.208 0.029 0.417 0.13 0.606 0.050 0.064 0.12 0.115 0.202 0.147s0.172 0.044 0.261 0.034c0.13 0.009 0.258-0.026 0.358-0.098 0.082-0.071 0.136-0.163 0.151-0.262 0.024-0.143 0.034-0.288 0.031-0.433v-0.438h1.013v0.4c0.028 0.396-0.095 0.789-0.35 1.118-0.233 0.264-0.629 0.396-1.212 0.396s-1.023-0.141-1.273-0.434z"></path>
<path d="M35.703 15.675c-0.256-0.277-0.384-0.68-0.384-1.214v-1.871c0-0.528 0.128-0.928 0.384-1.2s0.684-0.406 1.283-0.405c0.595 0 1.021 0.135 1.277 0.405 0.256 0.271 0.386 0.671 0.386 1.2v1.871c0 0.528-0.13 0.934-0.39 1.212s-0.683 0.418-1.273 0.418-1.025-0.141-1.283-0.416zM37.458 15.227c0.092-0.173 0.133-0.363 0.122-0.554v-2.291c0.012-0.187-0.029-0.373-0.12-0.543-0.051-0.065-0.123-0.117-0.207-0.149s-0.176-0.043-0.267-0.032c-0.091-0.011-0.184 0-0.268 0.032s-0.156 0.084-0.208 0.149c-0.092 0.169-0.134 0.356-0.122 0.543v2.301c-0.013 0.191 0.029 0.38 0.122 0.554 0.059 0.058 0.132 0.105 0.214 0.137s0.17 0.049 0.26 0.049 0.179-0.017 0.26-0.049c0.082-0.032 0.155-0.079 0.214-0.137v-0.011z"></path>
<path d="M39.867 11.040h1.090l0.82 3.452 0.839-3.452h1.061l0.107 4.983h-0.785l-0.084-3.463-0.809 3.463h-0.629l-0.839-3.476-0.078 3.476h-0.793l0.099-4.983z"></path>
<path d="M45.007 11.040h1.699c0.978 0 1.468 0.472 1.468 1.415 0 0.903-0.516 1.354-1.545 1.353h-0.579v2.214h-1.048l0.006-4.983zM46.458 13.169c0.103 0.011 0.209 0.003 0.309-0.024s0.191-0.073 0.268-0.133c0.12-0.168 0.173-0.366 0.151-0.563 0.006-0.152-0.011-0.304-0.050-0.452-0.015-0.050-0.041-0.096-0.078-0.137s-0.081-0.075-0.132-0.1c-0.145-0.060-0.306-0.088-0.467-0.080h-0.407v1.489h0.407z"></path>
<path d="M49.685 11.040h1.126l1.155 4.983h-0.977l-0.228-1.149h-1.004l-0.235 1.149h-0.992l1.155-4.983zM50.647 14.296l-0.392-2.091-0.392 2.091h0.784z"></path>
<path d="M52.899 11.040h0.734l1.405 2.842v-2.842h0.87v4.983h-0.698l-1.413-2.967v2.967h-0.899l0.002-4.983z"></path>
<path d="M57.946 14.123l-1.168-3.076h0.983l0.712 1.976 0.669-1.976h0.963l-1.154 3.076v1.9h-1.006v-1.9z"></path>
<path d="M33.105 18.201v0.261h-0.855v2.025h-0.358v-2.025h-0.86v-0.261h2.074z"></path>
<path d="M35.787 20.486h-0.277c-0.028 0.002-0.056-0.006-0.078-0.022-0.021-0.013-0.037-0.031-0.046-0.052l-0.247-0.543h-1.187l-0.247 0.543c-0.007 0.023-0.020 0.044-0.038 0.062-0.022 0.015-0.050 0.023-0.078 0.022h-0.277l1.048-2.285h0.365l1.061 2.276zM34.051 19.638h0.99l-0.419-0.93c-0.031-0.070-0.057-0.142-0.078-0.215-0.015 0.043-0.027 0.085-0.040 0.121l-0.038 0.096-0.415 0.928z"></path>
<path d="M37.594 20.262c0.066 0.003 0.131 0.003 0.197 0 0.057-0.005 0.113-0.014 0.168-0.027 0.051-0.011 0.102-0.025 0.151-0.042 0.046-0.016 0.092-0.036 0.14-0.056v-0.514h-0.419c-0.010 0.001-0.021-0.001-0.031-0.004s-0.019-0.008-0.026-0.014c-0.007-0.005-0.012-0.012-0.016-0.019s-0.005-0.015-0.005-0.023v-0.175h0.814v0.876c-0.066 0.041-0.136 0.077-0.21 0.109-0.075 0.032-0.153 0.058-0.233 0.078-0.086 0.022-0.173 0.038-0.262 0.047-0.102 0.010-0.204 0.015-0.306 0.014-0.181 0.001-0.36-0.028-0.528-0.085-0.157-0.054-0.3-0.136-0.419-0.239-0.117-0.104-0.209-0.227-0.27-0.362-0.066-0.152-0.099-0.312-0.096-0.474-0.002-0.163 0.030-0.325 0.094-0.478 0.060-0.135 0.152-0.259 0.27-0.362 0.12-0.103 0.262-0.183 0.419-0.237 0.18-0.058 0.37-0.087 0.562-0.085 0.098-0 0.195 0.006 0.291 0.020 0.085 0.012 0.169 0.031 0.25 0.058 0.073 0.024 0.144 0.054 0.21 0.091 0.064 0.036 0.125 0.076 0.182 0.119l-0.101 0.141c-0.008 0.013-0.020 0.024-0.034 0.031s-0.031 0.012-0.048 0.012c-0.023-0.001-0.046-0.007-0.065-0.018-0.031-0.014-0.065-0.032-0.103-0.054-0.045-0.024-0.092-0.045-0.14-0.062-0.063-0.022-0.127-0.039-0.193-0.051-0.088-0.014-0.177-0.021-0.266-0.020-0.138-0.001-0.276 0.020-0.405 0.063-0.117 0.040-0.222 0.102-0.308 0.181-0.087 0.082-0.153 0.179-0.195 0.284-0.094 0.247-0.094 0.514 0 0.762 0.046 0.108 0.117 0.206 0.21 0.288 0.086 0.078 0.19 0.14 0.306 0.181 0.133 0.040 0.275 0.055 0.415 0.045z"></path>
<path d="M40.936 20.225h1.145v0.261h-1.495v-2.285h0.358l-0.009 2.025z"></path>
<path d="M43.272 20.486h-0.358v-2.285h0.358v2.285z"></path>
<path d="M44.606 18.212c0.021 0.011 0.039 0.025 0.054 0.042l1.533 1.723c-0.003-0.027-0.003-0.054 0-0.081 0-0.025 0-0.051 0-0.074v-1.628h0.312v2.294h-0.18c-0.026 0.002-0.053-0.003-0.078-0.013-0.021-0.011-0.041-0.026-0.057-0.043l-1.53-1.721c0 0.027 0 0.052 0 0.078s0 0.049 0 0.071v1.628h-0.3v-2.285h0.187c0.020 0 0.041 0.004 0.059 0.011z"></path>
<path d="M49.146 18.201v0.252h-1.271v0.755h1.030v0.242h-1.030v0.78h1.271v0.252h-1.64v-2.28h1.64z"></path>
<path d="M11.573 4.088l15.921 3.901v13.669l-15.921-3.899v-13.671zM10.552 2.923v15.5l17.961 4.402v-15.499l-17.961-4.404z"></path>
<path d="M20.178 30.021l-17.963-4.406v-15.499l17.963 4.404v15.501z"></path>
<path d="M10.849 3.913l15.713 3.852-6.682 5.768-15.716-3.854 6.685-5.766zM10.552 2.923l-8.337 7.194 17.963 4.404 8.335-7.194-17.961-4.404z"></path>
<path d="M21.189 29.149l7.324-6.322-7.324-1.797v8.118z"></path>
</symbol>
<symbol id="icon-client-5" viewBox="0 0 61 32">
<path d="M14.096 26.683c0.16 0.178 0.246 0.402 0.241 0.631 0.008 0.15-0.022 0.299-0.086 0.437s-0.163 0.261-0.288 0.36c-0.312 0.211-0.697 0.315-1.086 0.291h-1.909v-4.001h1.87c0.369-0.022 0.736 0.072 1.036 0.266 0.121 0.091 0.216 0.206 0.279 0.336s0.092 0.271 0.083 0.413c0.011 0.221-0.066 0.438-0.217 0.612-0.145 0.159-0.345 0.269-0.569 0.312 0.253 0.042 0.482 0.163 0.645 0.342zM11.857 26.079h0.799c0.182 0.012 0.362-0.035 0.508-0.133 0.060-0.049 0.107-0.11 0.136-0.178s0.042-0.141 0.035-0.213c0.006-0.072-0.007-0.145-0.036-0.213s-0.075-0.128-0.134-0.178c-0.15-0.101-0.336-0.149-0.523-0.134h-0.786v1.050zM13.242 27.615c0.064-0.050 0.114-0.112 0.147-0.183s0.047-0.147 0.042-0.224c0.005-0.077-0.010-0.154-0.044-0.226s-0.085-0.134-0.15-0.185c-0.156-0.104-0.349-0.156-0.543-0.145h-0.838v1.101h0.849c0.191 0.010 0.38-0.039 0.536-0.139z"></path>
<path d="M17.917 28.404l-1.040-1.564h-0.391v1.564h-0.894v-4.001h1.694c0.427-0.027 0.849 0.095 1.179 0.34 0.237 0.217 0.38 0.503 0.402 0.807s-0.075 0.604-0.277 0.849c-0.209 0.215-0.494 0.359-0.808 0.407l1.107 1.599h-0.973zM16.486 26.295h0.732c0.508 0 0.762-0.202 0.762-0.606 0.005-0.083-0.009-0.165-0.041-0.242s-0.082-0.148-0.145-0.207c-0.161-0.12-0.367-0.178-0.576-0.162h-0.74l0.009 1.218z"></path>
<path d="M22.807 27.599h-1.782l-0.315 0.805h-0.938l1.637-3.957h1.014l1.631 3.957h-0.938l-0.308-0.805zM22.569 26.993l-0.651-1.689-0.651 1.689h1.303z"></path>
<path d="M28.928 28.404h-0.888l-1.991-2.721v2.721h-0.886v-4.001h0.886l1.991 2.737v-2.737h0.888v4.001z"></path>
<path d="M33.997 27.446c-0.184 0.302-0.464 0.548-0.804 0.706-0.387 0.176-0.815 0.262-1.248 0.252h-1.581v-4.001h1.581c0.432-0.011 0.861 0.075 1.248 0.246 0.34 0.154 0.62 0.398 0.804 0.698 0.183 0.325 0.278 0.685 0.278 1.050s-0.095 0.725-0.278 1.050zM32.98 27.351c0.253-0.266 0.393-0.604 0.393-0.955s-0.139-0.689-0.393-0.955c-0.306-0.241-0.706-0.363-1.112-0.34h-0.617v2.59h0.617c0.406 0.023 0.806-0.099 1.112-0.34z"></path>
<path d="M23.363 2.144c0 0 11.463 3.896 11.219 9.534v9.536c0 0-11.454-3.898-11.215-9.536l-0.004-9.534z"></path>
<path d="M44.795 18.982c2.165-1.341 4.669-2.172 7.283-2.417v-2.985c-3.012 1.045-5.566 2.94-7.283 5.401z"></path>
<path d="M43.494 19.881c1.771-3.212 4.843-5.691 8.583-6.926v-8.601c0 0-16.325 5.55-15.979 13.579v13.577c0 0 0.727-0.248 1.872-0.714 0-0.434 0-0.872 0.052-1.312 0.338-3.727 2.306-7.181 5.472-9.602z"></path>
<path d="M41.942 24.925c0.086-0.942 0.277-1.873 0.571-2.78-1.971 2.091-3.166 4.685-3.414 7.418-0.024 0.258-0.037 0.516-0.044 0.782 0.927-0.4 2.006-0.901 3.14-1.49-0.29-1.293-0.375-2.617-0.255-3.931z"></path>
<path d="M42.591 24.974c-0.108 1.189-0.040 2.386 0.202 3.56 4.46-2.402 9.471-6.115 9.279-10.601v-0.391c-3.186 0.321-6.168 1.575-8.486 3.57-0.542 1.236-0.877 2.538-0.995 3.863z"></path>
</symbol>
<symbol id="icon-client-4" viewBox="0 0 61 32">
<path d="M10.794 11.415h-0.002c-1.687 0-3.056 1.233-3.056 2.755v0.002c0 1.521 1.368 2.755 3.056 2.755h0.002c1.687 0 3.056-1.233 3.056-2.755v-0.002c0-1.521-1.368-2.755-3.056-2.755z"></path>
<path d="M33.346 10.535c-0.005-2.113-0.938-4.138-2.595-5.633s-3.903-2.336-6.247-2.341v0c-2.344 0.004-4.591 0.845-6.25 2.34s-2.592 3.52-2.596 5.634v11.653c0 0 17.686-1.776 17.688-11.651v-0.002z"></path>
<path d="M1.543 26.012c0.004 1.47 0.654 2.88 1.807 3.919s2.715 1.626 4.346 1.63c1.631-0.004 3.192-0.59 4.346-1.63s1.803-2.448 1.807-3.918v-8.108c0 0-12.306 1.237-12.306 8.106zM7.696 27.465c-0.319 0-0.63-0.085-0.895-0.245s-0.471-0.386-0.593-0.652-0.154-0.558-0.092-0.839c0.062-0.282 0.216-0.541 0.441-0.744s0.513-0.341 0.825-0.397 0.636-0.027 0.931 0.083c0.294 0.11 0.546 0.296 0.723 0.535s0.272 0.52 0.272 0.807c0.001 0.192-0.040 0.381-0.121 0.558s-0.199 0.338-0.349 0.473c-0.15 0.136-0.328 0.243-0.524 0.317s-0.406 0.111-0.618 0.111v-0.005z"></path>
<path d="M18.95 24.852v3.017h-0.622v-3.017h0.622zM20.152 26.141v0.485h-1.372v-0.485h1.372zM20.297 24.852v0.487h-1.517v-0.487h1.517zM23.136 26.29v0.143c0 0.23-0.031 0.435-0.093 0.618s-0.15 0.338-0.263 0.466c-0.113 0.127-0.249 0.225-0.406 0.292-0.156 0.068-0.33 0.102-0.52 0.102-0.189 0-0.363-0.034-0.52-0.102-0.156-0.068-0.292-0.165-0.406-0.292-0.115-0.128-0.204-0.284-0.267-0.466-0.062-0.183-0.093-0.388-0.093-0.618v-0.143c0-0.231 0.031-0.437 0.093-0.618 0.062-0.183 0.15-0.338 0.263-0.466 0.115-0.128 0.25-0.227 0.406-0.294 0.157-0.068 0.331-0.102 0.52-0.102 0.191 0 0.364 0.034 0.52 0.102 0.157 0.068 0.293 0.166 0.406 0.294 0.115 0.128 0.203 0.284 0.265 0.466 0.064 0.181 0.096 0.387 0.096 0.618zM22.508 26.433v-0.147c0-0.16-0.015-0.301-0.044-0.423s-0.072-0.224-0.128-0.307-0.126-0.145-0.207-0.187c-0.082-0.043-0.174-0.064-0.28-0.064s-0.198 0.022-0.28 0.064c-0.080 0.042-0.148 0.104-0.205 0.187-0.056 0.083-0.098 0.185-0.127 0.307s-0.044 0.263-0.044 0.423v0.147c0 0.159 0.015 0.3 0.044 0.423 0.029 0.122 0.072 0.225 0.128 0.309s0.126 0.146 0.207 0.189c0.082 0.043 0.174 0.064 0.28 0.064s0.198-0.022 0.28-0.064c0.082-0.043 0.15-0.105 0.205-0.189s0.098-0.187 0.127-0.309c0.029-0.123 0.044-0.264 0.044-0.423zM25.154 27.080c0-0.054-0.009-0.102-0.025-0.145-0.015-0.044-0.044-0.085-0.087-0.12-0.043-0.038-0.103-0.074-0.18-0.11s-0.178-0.073-0.301-0.112c-0.137-0.044-0.267-0.094-0.39-0.149-0.122-0.055-0.23-0.119-0.323-0.193-0.093-0.075-0.166-0.161-0.22-0.259-0.052-0.098-0.078-0.212-0.078-0.342 0-0.126 0.028-0.24 0.083-0.342s0.133-0.192 0.232-0.265c0.099-0.074 0.217-0.132 0.352-0.172 0.137-0.040 0.287-0.060 0.45-0.060 0.223 0 0.417 0.040 0.582 0.12s0.294 0.19 0.386 0.33c0.093 0.14 0.139 0.299 0.139 0.479h-0.618c0-0.089-0.018-0.166-0.056-0.232-0.036-0.068-0.091-0.121-0.166-0.16-0.073-0.039-0.166-0.058-0.278-0.058-0.108 0-0.198 0.016-0.27 0.049-0.072 0.032-0.126 0.076-0.162 0.131-0.036 0.054-0.054 0.115-0.054 0.183 0 0.051 0.013 0.098 0.038 0.139 0.026 0.042 0.065 0.080 0.116 0.116s0.114 0.070 0.189 0.102c0.075 0.032 0.161 0.063 0.259 0.093 0.165 0.049 0.309 0.105 0.433 0.168s0.231 0.132 0.315 0.209c0.085 0.078 0.148 0.165 0.191 0.263s0.064 0.209 0.064 0.334c0 0.131-0.026 0.249-0.076 0.352s-0.125 0.192-0.222 0.263-0.212 0.127-0.346 0.164c-0.134 0.038-0.284 0.056-0.45 0.056-0.149 0-0.296-0.020-0.442-0.058-0.145-0.040-0.277-0.1-0.396-0.18-0.118-0.080-0.212-0.183-0.282-0.307s-0.105-0.272-0.105-0.442h0.624c0 0.094 0.015 0.174 0.044 0.238s0.069 0.118 0.122 0.158c0.054 0.040 0.118 0.069 0.191 0.087 0.075 0.018 0.156 0.027 0.245 0.027 0.108 0 0.196-0.015 0.265-0.045 0.071-0.030 0.122-0.073 0.156-0.127 0.035-0.054 0.052-0.115 0.052-0.183zM27.548 24.852v3.017h-0.62v-3.017h0.62zM28.477 24.852v0.487h-2.462v-0.487h2.462zM30.855 27.385v0.485h-1.606v-0.485h1.606zM29.452 24.852v3.017h-0.622v-3.017h0.622zM30.646 26.081v0.473h-1.397v-0.473h1.397zM30.853 24.852v0.487h-1.604v-0.487h1.604zM31.218 24.852h1.125c0.231 0 0.429 0.035 0.595 0.104 0.167 0.069 0.296 0.172 0.386 0.307s0.135 0.302 0.135 0.5c0 0.162-0.027 0.301-0.083 0.417-0.054 0.115-0.13 0.211-0.23 0.288-0.098 0.076-0.214 0.137-0.346 0.183l-0.197 0.104h-0.978l-0.004-0.485h0.727c0.109 0 0.2-0.020 0.272-0.058s0.126-0.093 0.162-0.162c0.038-0.069 0.056-0.149 0.056-0.241 0-0.097-0.018-0.18-0.054-0.251s-0.091-0.125-0.164-0.162-0.165-0.056-0.276-0.056h-0.504v2.53h-0.622v-3.017zM32.905 27.87l-0.688-1.345 0.657-0.004 0.696 1.32v0.029h-0.665zM36.169 26.794h-0.769v-0.485h0.769c0.119 0 0.215-0.020 0.29-0.058 0.075-0.040 0.129-0.096 0.164-0.166s0.052-0.15 0.052-0.238c0-0.090-0.017-0.174-0.052-0.251s-0.089-0.14-0.164-0.187-0.172-0.071-0.29-0.071h-0.553v2.53h-0.622v-3.017h1.175c0.236 0 0.439 0.043 0.607 0.129 0.17 0.084 0.3 0.201 0.39 0.35s0.135 0.32 0.135 0.512c0 0.195-0.045 0.363-0.135 0.506s-0.22 0.252-0.39 0.33c-0.169 0.078-0.371 0.116-0.607 0.116zM39.753 27.385v0.485h-1.606v-0.485h1.606zM38.35 24.852v3.017h-0.622v-3.017h0.622zM39.544 26.081v0.473h-1.397v-0.473h1.397zM39.751 24.852v0.487h-1.604v-0.487h1.604zM41.507 24.852v3.017h-0.62v-3.017h0.62zM42.435 24.852v0.487h-2.462v-0.487h2.462zM44.814 27.385v0.485h-1.606v-0.485h1.606zM43.411 24.852v3.017h-0.622v-3.017h0.622zM44.605 26.081v0.473h-1.396v-0.473h1.396zM44.812 24.852v0.487h-1.604v-0.487h1.604zM45.177 24.852h1.125c0.23 0 0.429 0.035 0.595 0.104 0.167 0.069 0.296 0.172 0.386 0.307s0.134 0.302 0.134 0.5c0 0.162-0.027 0.301-0.083 0.417-0.054 0.115-0.131 0.211-0.23 0.288-0.098 0.076-0.214 0.137-0.346 0.183l-0.196 0.104h-0.978l-0.004-0.485h0.728c0.109 0 0.199-0.020 0.271-0.058s0.126-0.093 0.162-0.162c0.038-0.069 0.056-0.149 0.056-0.241 0-0.097-0.018-0.18-0.054-0.251s-0.091-0.125-0.164-0.162c-0.073-0.038-0.165-0.056-0.275-0.056h-0.504v2.53h-0.622v-3.017zM46.864 27.87l-0.688-1.345 0.657-0.004 0.696 1.32v0.029h-0.665zM49.466 27.080c0-0.054-0.008-0.102-0.025-0.145-0.015-0.044-0.044-0.085-0.087-0.12-0.042-0.038-0.103-0.074-0.181-0.11s-0.178-0.073-0.3-0.112c-0.137-0.044-0.267-0.094-0.39-0.149-0.122-0.055-0.229-0.119-0.323-0.193-0.093-0.075-0.166-0.161-0.22-0.259-0.052-0.098-0.078-0.212-0.078-0.342 0-0.126 0.027-0.24 0.083-0.342s0.133-0.192 0.232-0.265c0.1-0.074 0.217-0.132 0.352-0.172 0.137-0.040 0.287-0.060 0.45-0.060 0.222 0 0.417 0.040 0.582 0.12 0.166 0.080 0.294 0.19 0.386 0.33 0.093 0.14 0.138 0.299 0.138 0.479h-0.618c0-0.089-0.018-0.166-0.056-0.232-0.036-0.068-0.091-0.121-0.165-0.16s-0.165-0.058-0.278-0.058c-0.107 0-0.197 0.016-0.27 0.049-0.071 0.032-0.125 0.076-0.161 0.131-0.036 0.054-0.054 0.115-0.054 0.183 0 0.051 0.012 0.098 0.038 0.139s0.065 0.080 0.116 0.116c0.051 0.036 0.114 0.070 0.188 0.102s0.161 0.063 0.259 0.093c0.165 0.049 0.309 0.105 0.433 0.168 0.125 0.062 0.23 0.132 0.315 0.209s0.148 0.165 0.191 0.263c0.042 0.098 0.064 0.209 0.064 0.334 0 0.131-0.025 0.249-0.076 0.352s-0.125 0.192-0.222 0.263c-0.096 0.072-0.212 0.127-0.346 0.164s-0.283 0.056-0.45 0.056c-0.149 0-0.296-0.020-0.442-0.058-0.145-0.040-0.277-0.1-0.395-0.18-0.118-0.080-0.212-0.183-0.282-0.307s-0.105-0.272-0.105-0.442h0.624c0 0.094 0.014 0.174 0.043 0.238s0.070 0.118 0.123 0.158c0.054 0.040 0.118 0.069 0.191 0.087s0.156 0.027 0.244 0.027c0.108 0 0.196-0.015 0.265-0.045 0.071-0.030 0.123-0.073 0.156-0.127 0.035-0.054 0.051-0.115 0.051-0.183z"></path>
</symbol>
<symbol id="icon-client-3" viewBox="0 0 61 32">
<path d="M19.8 31.011c0.011 0 0.022 0.002 0.033 0.007s0.020 0.009 0.027 0.017l0.156 0.147c-0.121 0.119-0.271 0.214-0.439 0.279-0.197 0.071-0.409 0.105-0.623 0.1-0.201 0.004-0.4-0.029-0.586-0.094-0.167-0.060-0.318-0.15-0.441-0.263-0.125-0.118-0.223-0.256-0.285-0.407-0.068-0.168-0.102-0.344-0.1-0.522-0.003-0.179 0.034-0.357 0.107-0.524 0.068-0.152 0.171-0.29 0.303-0.407 0.134-0.115 0.293-0.205 0.469-0.265 0.192-0.064 0.397-0.096 0.603-0.094 0.192-0.004 0.382 0.025 0.56 0.085 0.154 0.058 0.297 0.137 0.42 0.235l-0.131 0.157c-0.009 0.011-0.020 0.020-0.033 0.029-0.016 0.009-0.034 0.013-0.053 0.011-0.020-0.001-0.040-0.007-0.056-0.017l-0.070-0.042-0.098-0.053c-0.042-0.020-0.086-0.037-0.131-0.052-0.058-0.018-0.117-0.031-0.178-0.042-0.076-0.012-0.154-0.018-0.232-0.017-0.149-0.002-0.296 0.022-0.433 0.070-0.128 0.044-0.244 0.111-0.339 0.197-0.098 0.091-0.172 0.198-0.221 0.314-0.055 0.133-0.082 0.273-0.080 0.414-0.002 0.143 0.025 0.285 0.080 0.42 0.047 0.115 0.121 0.221 0.217 0.312 0.089 0.085 0.2 0.151 0.324 0.194 0.127 0.045 0.264 0.068 0.402 0.067 0.080 0.001 0.159-0.004 0.238-0.013 0.129-0.013 0.252-0.051 0.361-0.112 0.055-0.031 0.107-0.065 0.154-0.103 0.020-0.016 0.047-0.026 0.074-0.027z"></path>
<path d="M24.31 30.274c0.002 0.177-0.033 0.353-0.105 0.519-0.064 0.15-0.164 0.288-0.294 0.403s-0.288 0.205-0.462 0.265c-0.382 0.125-0.805 0.125-1.187 0-0.173-0.060-0.329-0.151-0.459-0.265-0.13-0.117-0.232-0.256-0.297-0.407-0.141-0.336-0.141-0.703 0-1.039 0.067-0.152 0.167-0.29 0.297-0.408 0.131-0.111 0.287-0.198 0.459-0.255 0.382-0.127 0.805-0.127 1.187 0 0.174 0.060 0.33 0.15 0.461 0.265 0.129 0.116 0.229 0.252 0.295 0.402 0.072 0.167 0.108 0.344 0.105 0.522zM23.9 30.274c0.003-0.142-0.022-0.283-0.074-0.417-0.044-0.115-0.115-0.221-0.209-0.312-0.092-0.085-0.204-0.153-0.33-0.197-0.278-0.091-0.585-0.091-0.863 0-0.125 0.044-0.239 0.111-0.33 0.197-0.096 0.090-0.167 0.196-0.211 0.312-0.099 0.272-0.099 0.562 0 0.834 0.044 0.116 0.116 0.221 0.211 0.312 0.092 0.085 0.205 0.152 0.33 0.195 0.278 0.089 0.585 0.089 0.863 0 0.125-0.043 0.238-0.11 0.33-0.195 0.094-0.091 0.165-0.197 0.209-0.312 0.052-0.134 0.078-0.275 0.074-0.417z"></path>
<path d="M27.387 30.711l0.041 0.094c0.016-0.033 0.029-0.063 0.045-0.094 0.015-0.031 0.032-0.062 0.051-0.092l0.997-1.55c0.020-0.027 0.037-0.043 0.056-0.049 0.027-0.007 0.054-0.009 0.082-0.009h0.295v2.521h-0.35v-1.853c0-0.023 0-0.050 0-0.078-0.002-0.029-0.002-0.058 0-0.087l-1.004 1.571c-0.013 0.024-0.033 0.044-0.058 0.058s-0.056 0.021-0.085 0.021h-0.056c-0.031 0-0.060-0.007-0.086-0.020s-0.046-0.034-0.058-0.058l-1.033-1.581c0 0.030 0 0.060 0 0.090s0 0.056 0 0.080v1.853h-0.337v-2.516h0.295c0.027-0.002 0.056 0.002 0.082 0.009 0.024 0.011 0.044 0.027 0.055 0.049l1.019 1.551c0.020 0.029 0.037 0.058 0.051 0.090z"></path>
<path d="M31.142 30.586v0.944h-0.39v-2.517h0.87c0.165-0.002 0.328 0.016 0.486 0.055 0.127 0.031 0.243 0.084 0.344 0.157 0.087 0.068 0.154 0.153 0.195 0.247 0.046 0.103 0.069 0.212 0.067 0.322 0.002 0.11-0.023 0.22-0.072 0.322-0.047 0.096-0.119 0.183-0.211 0.252-0.1 0.076-0.218 0.133-0.346 0.167-0.152 0.042-0.311 0.061-0.471 0.058l-0.473-0.007zM31.142 30.315h0.473c0.103 0.001 0.205-0.012 0.303-0.038 0.081-0.023 0.155-0.060 0.219-0.109 0.058-0.046 0.104-0.103 0.133-0.167 0.032-0.067 0.048-0.139 0.047-0.212 0.005-0.070-0.009-0.14-0.039-0.205s-0.077-0.124-0.136-0.172c-0.149-0.1-0.337-0.147-0.525-0.135h-0.473v1.037z"></path>
<path d="M36.39 31.533h-0.308c-0.031 0.001-0.061-0.007-0.086-0.023-0.022-0.016-0.040-0.036-0.051-0.058l-0.265-0.609h-1.334l-0.275 0.609c-0.010 0.022-0.027 0.042-0.049 0.056-0.025 0.017-0.056 0.026-0.087 0.025h-0.308l1.171-2.521h0.406l1.187 2.521zM34.457 30.598h1.102l-0.464-1.026c-0.036-0.077-0.065-0.156-0.087-0.237l-0.045 0.132c-0.014 0.040-0.029 0.077-0.043 0.107l-0.461 1.024z"></path>
<path d="M38.076 29.024c0.023 0.011 0.043 0.027 0.058 0.045l1.709 1.9c0-0.030 0-0.060 0-0.089s0-0.056 0-0.083v-1.785h0.35v2.521h-0.195c-0.028 0-0.055-0.004-0.080-0.015-0.024-0.012-0.045-0.028-0.062-0.047l-1.706-1.898c0.002 0.029 0.002 0.058 0 0.087 0 0.029 0 0.053 0 0.077v1.797h-0.35v-2.521h0.207c0.024-0 0.048 0.004 0.070 0.011z"></path>
<path d="M43.071 30.531v1.001h-0.39v-1.001l-1.080-1.518h0.35c0.031-0.002 0.060 0.006 0.084 0.022 0.021 0.016 0.039 0.036 0.052 0.056l0.676 0.979c0.027 0.042 0.051 0.080 0.071 0.116s0.035 0.072 0.049 0.107l0.050-0.109c0.019-0.040 0.042-0.078 0.067-0.115l0.667-0.986c0.013-0.020 0.031-0.038 0.050-0.053 0.023-0.018 0.054-0.026 0.084-0.025h0.354l-1.082 1.525z"></path>
<path d="M27.194 24.783c0.17 0.018 0.341 0.033 0.515 0.047 2.635-1.007 4.863-2.655 6.407-4.738s2.336-4.509 2.275-6.974l-2.903-2.481c0.591 2.625 0.314 5.338-0.797 7.837s-3.015 4.683-5.497 6.31z"></path>
<path d="M26.157 24.667l0.078 0.013c2.652-1.621 4.675-3.884 5.805-6.498s1.318-5.457 0.536-8.162l-4.136-3.533c1.673 2.904 2.346 6.154 1.941 9.372s-1.87 6.272-4.225 8.807z"></path>
<path d="M40.182 16.030c-0.703 2.708-2.409 5.151-4.865 6.966-0.718 0.533-1.491 1.008-2.311 1.418 2.001-0.502 3.839-1.39 5.374-2.596s2.726-2.696 3.48-4.357l-1.677-1.431z"></path>
<path d="M39.524 15.631l-2.388-2.040c-0.046 2.326-0.819 4.599-2.242 6.583s-3.44 3.607-5.844 4.698h0.011c0.536-0 1.071-0.027 1.603-0.082 2.247-0.783 4.232-2.030 5.777-3.628s2.604-3.498 3.081-5.532z"></path>
<path d="M26.503 4.998l-2.849-2.437c-2.547 0.841-4.736 2.319-6.284 4.241s-2.379 4.198-2.387 6.531v0c0.009 2.577 1.025 5.079 2.885 7.107s4.46 3.469 7.386 4.094c2.612-2.72 4.142-6.081 4.367-9.593s-0.868-6.996-3.119-9.943z"></path>
<path d="M46.105 15.255c-0.011-3.058-1.437-5.988-3.967-8.151s-5.961-3.381-9.539-3.39c-1.654-0.002-3.294 0.259-4.836 0.769l17.441 14.902c0.597-1.317 0.903-2.717 0.902-4.13z"></path>
</symbol>
<symbol id="icon-client-2" viewBox="0 0 61 32">
<path d="M29.475 3.482h-0.078c-0.119-0.007-0.238-0.010-0.357-0.013v0h-0.258c-0.225 0-0.455 0.006-0.683 0.017-0.017-0.001-0.034-0.001-0.052 0-2.068 0.117-4.093 0.634-5.966 1.522l-0.245 0.118v12.561l0.574-0.195c0.504-0.173 1.041-0.329 1.596-0.473 1.501-0.385 3.043-0.59 4.593-0.61v1.65c-0.205 0.001-0.405 0.007-0.604 0.017h-0.047c-1.192 0.065-2.376 0.247-3.533 0.542-1.466 0.367-2.88 0.918-4.209 1.64v-16.11c1.38-0.805 2.867-1.41 4.416-1.796 1.36-0.351 2.758-0.531 4.162-0.537h0.242c0.29 0.007 0.573 0.020 0.838 0.040 0.7 0.049 1.393 0.16 2.074 0.33v1.624c-0.661-0.154-1.333-0.255-2.009-0.303-0.014-0.001-0.027-0.002-0.041-0.003-0.14-0.012-0.28-0.024-0.411-0.024zM32.333 5.142c0.36 0.027 0.733 0.040 1.111 0.040 1.476-0.005 2.946-0.194 4.376-0.561 1.465-0.368 2.879-0.92 4.208-1.642v15.823c-1.381 0.805-2.868 1.409-4.417 1.796-1.36 0.35-2.758 0.53-4.162 0.535-1.064 0.009-2.124-0.116-3.157-0.372v-15.925c0.244 0.056 0.495 0.108 0.751 0.152 0.419 0.071 0.861 0.123 1.292 0.154zM40.386 5.265l-0.574 0.193c-0.528 0.178-1.061 0.336-1.596 0.478-1.559 0.401-3.16 0.606-4.769 0.612-0.375 0-0.719-0.010-1.052-0.032l-0.458-0.030v12.922l0.393 0.035c0.365 0.032 0.741 0.048 1.119 0.048 1.267-0.005 2.529-0.169 3.756-0.486 1.010-0.253 1.994-0.607 2.935-1.055l0.246-0.118v-12.565z"></path>
<path d="M21.318 25.765c-0.082-0.086-0.182-0.153-0.292-0.197s-0.228-0.065-0.347-0.061c-0.126-0.002-0.252 0.022-0.369 0.069-0.108 0.043-0.205 0.107-0.287 0.189s-0.144 0.18-0.185 0.289c-0.045 0.113-0.067 0.234-0.066 0.356v2.152c-0.005 0.152 0.024 0.303 0.085 0.441 0.051 0.11 0.124 0.209 0.215 0.289 0.086 0.073 0.187 0.125 0.296 0.153 0.105 0.029 0.213 0.044 0.322 0.045 0.12 0.001 0.239-0.025 0.347-0.075 0.108-0.047 0.205-0.115 0.287-0.199 0.080-0.084 0.144-0.181 0.188-0.289 0.046-0.108 0.069-0.225 0.069-0.343v-0.241h-0.563v0.192c0.002 0.065-0.010 0.131-0.033 0.192-0.018 0.046-0.046 0.087-0.082 0.121-0.035 0.028-0.075 0.049-0.118 0.062-0.038 0.013-0.078 0.019-0.118 0.020-0.050 0.006-0.101-0.002-0.147-0.022s-0.087-0.053-0.117-0.093c-0.053-0.087-0.079-0.187-0.075-0.289v-2.007c-0.003-0.111 0.020-0.222 0.069-0.322 0.029-0.045 0.071-0.082 0.119-0.105s0.103-0.032 0.156-0.025c0.049-0.002 0.097 0.008 0.14 0.029s0.082 0.053 0.111 0.092c0.063 0.083 0.096 0.184 0.093 0.289v0.186h0.557v-0.219c0.001-0.129-0.022-0.257-0.069-0.377-0.041-0.113-0.106-0.216-0.188-0.303z"></path>
<path d="M24.661 25.74c-0.179-0.151-0.406-0.235-0.64-0.237-0.115 0-0.228 0.021-0.336 0.061-0.109 0.039-0.21 0.099-0.297 0.176-0.093 0.084-0.168 0.187-0.218 0.301-0.057 0.131-0.085 0.274-0.082 0.417v2.064c-0.004 0.145 0.024 0.29 0.082 0.423 0.051 0.111 0.125 0.209 0.218 0.289 0.086 0.080 0.187 0.142 0.297 0.182 0.108 0.040 0.221 0.060 0.336 0.061s0.228-0.021 0.336-0.061c0.112-0.041 0.215-0.102 0.304-0.182s0.162-0.179 0.212-0.289c0.058-0.133 0.086-0.277 0.082-0.423v-2.064c0.003-0.143-0.025-0.285-0.082-0.417-0.050-0.114-0.122-0.216-0.212-0.301zM24.398 28.523c0.005 0.055-0.003 0.11-0.022 0.162s-0.050 0.098-0.090 0.137c-0.074 0.062-0.168 0.096-0.265 0.096s-0.19-0.034-0.265-0.096c-0.040-0.038-0.070-0.085-0.090-0.137s-0.027-0.107-0.022-0.162v-2.064c-0.005-0.055 0.003-0.11 0.022-0.162s0.050-0.098 0.090-0.137c0.074-0.062 0.168-0.096 0.265-0.096s0.191 0.034 0.265 0.096c0.040 0.038 0.070 0.085 0.090 0.137s0.027 0.107 0.022 0.162v2.064z"></path>
<path d="M29.051 29.445v-3.908h-0.541l-0.71 2.069h-0.010l-0.716-2.069h-0.535v3.908h0.558v-2.378h0.010l0.547 1.681h0.278l0.551-1.681h0.010v2.378h0.558z"></path>
<path d="M32.223 25.811c-0.086-0.096-0.194-0.17-0.316-0.213-0.131-0.043-0.267-0.063-0.405-0.061h-0.829v3.908h0.557v-1.526h0.287c0.174 0.008 0.347-0.029 0.502-0.107 0.127-0.070 0.232-0.173 0.306-0.299 0.064-0.104 0.108-0.22 0.128-0.34 0.022-0.147 0.032-0.296 0.030-0.444 0.005-0.188-0.013-0.375-0.054-0.558-0.037-0.135-0.108-0.259-0.205-0.359zM31.936 27.003c-0.002 0.071-0.020 0.14-0.052 0.203-0.032 0.060-0.082 0.108-0.143 0.137-0.082 0.037-0.172 0.054-0.263 0.049h-0.254v-1.329h0.287c0.086-0.004 0.173 0.013 0.251 0.049 0.058 0.033 0.103 0.084 0.131 0.144 0.030 0.069 0.047 0.143 0.049 0.218 0 0.082 0 0.169 0 0.26s0.006 0.185 0 0.268h-0.006z"></path>
<path d="M34.861 25.537h-0.456l-0.861 3.908h0.557l0.164-0.84h0.759l0.164 0.84h0.557l-0.883-3.908zM34.347 28.073l0.274-1.417h0.010l0.273 1.417h-0.557z"></path>
<path d="M38.459 27.891h-0.010l-0.841-2.354h-0.535v3.908h0.557v-2.35h0.012l0.851 2.35h0.524v-3.908h-0.557v2.354z"></path>
<path d="M41.861 25.537l-0.448 1.554h-0.011l-0.448-1.554h-0.59l0.765 2.256v1.652h0.557v-1.652l0.765-2.256h-0.589z"></path>
<path d="M19.766 30.549h0.268v0.753h0.182v-0.753h0.267v-0.154h-0.718v0.154z"></path>
<path d="M22.022 30.394l-0.352 0.907h0.194l0.075-0.206h0.362l0.078 0.206h0.198l-0.36-0.907h-0.194zM21.993 30.942l0.123-0.336 0.123 0.336h-0.247z"></path>
<path d="M24.252 30.967h0.209v0.117c-0.061 0.049-0.137 0.076-0.215 0.076-0.037 0.002-0.073-0.005-0.107-0.020s-0.063-0.038-0.086-0.067c-0.048-0.069-0.072-0.152-0.067-0.237 0-0.202 0.088-0.303 0.261-0.303 0.046-0.005 0.091 0.008 0.129 0.034s0.065 0.066 0.076 0.11l0.179-0.035c-0.039-0.177-0.166-0.267-0.385-0.267-0.117-0.003-0.23 0.039-0.317 0.117-0.046 0.045-0.081 0.1-0.104 0.16s-0.032 0.125-0.027 0.189c-0.005 0.124 0.036 0.246 0.116 0.34 0.044 0.046 0.098 0.081 0.158 0.104s0.123 0.032 0.187 0.028c0.142 0.004 0.28-0.048 0.385-0.144v-0.358h-0.393v0.153z"></path>
<path d="M26.53 30.394h-0.184v0.907h0.636v-0.154h-0.452v-0.753z"></path>
<path d="M28.456 30.394h-0.184v0.907h0.184v-0.907z"></path>
<path d="M30.338 31l-0.372-0.606h-0.178v0.907h0.171v-0.593l0.365 0.593h0.182v-0.907h-0.168v0.606z"></path>
<path d="M32.041 30.902h0.452v-0.154h-0.452v-0.199h0.486v-0.154h-0.67v0.907h0.689v-0.154h-0.505v-0.245z"></path>
<path d="M36.168 30.752h-0.357v-0.358h-0.182v0.907h0.182v-0.397h0.357v0.397h0.182v-0.907h-0.182v0.358z"></path>
<path d="M37.88 30.902h0.453v-0.154h-0.453v-0.199h0.488v-0.154h-0.67v0.907h0.687v-0.154h-0.505v-0.245z"></path>
<path d="M40.202 30.902c0.158-0.025 0.238-0.108 0.238-0.252 0.005-0.039-0.001-0.078-0.017-0.113s-0.040-0.066-0.072-0.089c-0.082-0.041-0.174-0.060-0.266-0.053h-0.385v0.907h0.183v-0.379h0.036c0.039-0.002 0.078 0.005 0.113 0.020 0.027 0.016 0.049 0.039 0.065 0.066l0.198 0.289h0.218l-0.111-0.177c-0.049-0.088-0.117-0.162-0.201-0.218zM40.018 30.777h-0.134v-0.228h0.144c0.062-0.005 0.125 0.002 0.185 0.022 0.013 0.012 0.024 0.026 0.031 0.043s0.010 0.034 0.009 0.052c-0.001 0.018-0.006 0.035-0.014 0.051s-0.020 0.029-0.035 0.040c-0.060 0.018-0.123 0.026-0.185 0.022z"></path>
<path d="M41.953 30.902h0.452v-0.154h-0.452v-0.199h0.488v-0.154h-0.672v0.907h0.689v-0.154h-0.505v-0.245z"></path>
</symbol>
<symbol id="icon-client-1" viewBox="0 0 61 32">
<path d="M21.602 2.587l4.476 4.265-8.308-0.005v20.689h21.716v-7.91l4.471 4.259v-21.297h-22.354zM39.29 19.125l-12.691-12.091h12.691v12.091zM35.35 24.51h-14.143v-13.914h1v12.972h13.143v0.942zM24.027 31.368l-0.527-1.084h-0.435l0.764 1.435v0.835h0.395v-0.835l0.764-1.435h-0.434l-0.527 1.084zM25.97 30.284h0.093l0.858 2.27h-0.412l-0.184-0.532h-0.879l-0.183 0.532h-0.41l0.854-2.27h0.262zM25.554 31.713h0.665l-0.333-0.963-0.332 0.963zM28.298 31.336c-0.017-0.022-0.034-0.043-0.050-0.063-0.058-0.077-0.104-0.151-0.136-0.223s-0.048-0.147-0.048-0.224c0-0.119 0.024-0.22 0.073-0.306s0.118-0.151 0.207-0.196c0.089-0.047 0.194-0.070 0.314-0.070 0.115 0 0.215 0.023 0.298 0.070 0.084 0.046 0.149 0.106 0.194 0.183 0.046 0.076 0.069 0.159 0.069 0.25 0 0.072-0.013 0.138-0.039 0.196s-0.062 0.113-0.108 0.162c-0.046 0.049-0.099 0.095-0.159 0.139l-0.158 0.115 0.449 0.53c0.015-0.029 0.028-0.060 0.040-0.092 0.038-0.1 0.057-0.211 0.057-0.332h0.324c0 0.11-0.011 0.215-0.033 0.314-0.021 0.099-0.055 0.19-0.102 0.275-0.019 0.035-0.040 0.069-0.065 0.1l0.333 0.393h-0.435l-0.132-0.155c-0.072 0.054-0.149 0.097-0.233 0.127-0.11 0.040-0.228 0.059-0.352 0.059-0.151 0-0.281-0.027-0.391-0.083s-0.196-0.131-0.256-0.228c-0.059-0.097-0.089-0.207-0.089-0.332 0-0.093 0.020-0.174 0.057-0.243s0.091-0.136 0.158-0.196c0.061-0.055 0.132-0.112 0.21-0.167zM28.483 31.565l-0.047 0.035c-0.055 0.045-0.097 0.088-0.123 0.13-0.026 0.040-0.043 0.078-0.052 0.112s-0.012 0.065-0.012 0.091c0 0.067 0.014 0.127 0.042 0.181 0.029 0.054 0.071 0.097 0.127 0.129 0.056 0.031 0.125 0.047 0.204 0.047 0.086 0 0.17-0.020 0.251-0.057 0.040-0.020 0.080-0.044 0.115-0.072l-0.505-0.594zM28.573 31.15l0.14-0.094c0.065-0.044 0.112-0.086 0.14-0.128s0.042-0.096 0.042-0.159c0-0.054-0.021-0.104-0.063-0.149s-0.1-0.069-0.176-0.069c-0.053 0-0.098 0.012-0.134 0.037-0.037 0.023-0.064 0.056-0.083 0.097-0.018 0.040-0.027 0.084-0.027 0.132 0 0.047 0.012 0.095 0.036 0.145 0.024 0.049 0.057 0.1 0.099 0.155 0.009 0.011 0.017 0.022 0.026 0.033zM32.546 31.815h-0.39c-0.012 0.099-0.035 0.183-0.072 0.251-0.035 0.068-0.088 0.119-0.157 0.155-0.069 0.035-0.159 0.053-0.27 0.053-0.091 0-0.17-0.018-0.235-0.055s-0.119-0.088-0.162-0.155c-0.042-0.067-0.072-0.146-0.093-0.239-0.020-0.093-0.029-0.198-0.029-0.312v-0.192c0-0.121 0.011-0.228 0.033-0.322 0.023-0.095 0.057-0.174 0.102-0.239s0.1-0.113 0.167-0.147 0.145-0.050 0.233-0.050c0.11 0 0.198 0.019 0.265 0.056s0.119 0.089 0.153 0.159c0.035 0.070 0.058 0.153 0.069 0.251h0.39c-0.016-0.152-0.058-0.286-0.128-0.404-0.069-0.117-0.165-0.209-0.29-0.276s-0.278-0.1-0.459-0.1c-0.142 0-0.271 0.025-0.385 0.075s-0.211 0.122-0.292 0.217c-0.082 0.093-0.143 0.206-0.187 0.338-0.042 0.132-0.064 0.28-0.064 0.443v0.189c0 0.163 0.021 0.31 0.063 0.443s0.104 0.245 0.184 0.339c0.080 0.093 0.176 0.164 0.288 0.215s0.239 0.075 0.379 0.075c0.183 0 0.338-0.033 0.466-0.1s0.227-0.158 0.298-0.273c0.070-0.117 0.112-0.249 0.125-0.398zM34.712 31.482v-0.125c0-0.172-0.023-0.325-0.069-0.46s-0.109-0.252-0.192-0.348c-0.084-0.097-0.183-0.17-0.298-0.22s-0.243-0.076-0.383-0.076c-0.14 0-0.267 0.025-0.382 0.076s-0.214 0.123-0.298 0.22c-0.084 0.096-0.147 0.211-0.194 0.348-0.046 0.135-0.069 0.288-0.069 0.46v0.125c0 0.172 0.023 0.325 0.069 0.462 0.047 0.136 0.112 0.252 0.196 0.348s0.183 0.169 0.298 0.22c0.115 0.050 0.243 0.075 0.382 0.075 0.14 0 0.268-0.025 0.383-0.075 0.115-0.051 0.215-0.125 0.296-0.22 0.084-0.096 0.147-0.211 0.192-0.348s0.067-0.29 0.067-0.462zM34.32 31.354v0.128c0 0.127-0.012 0.239-0.037 0.337-0.023 0.098-0.059 0.181-0.106 0.248s-0.104 0.117-0.172 0.151c-0.068 0.033-0.145 0.050-0.232 0.050s-0.163-0.016-0.231-0.050c-0.068-0.035-0.126-0.085-0.175-0.151-0.048-0.068-0.084-0.15-0.11-0.248s-0.037-0.21-0.037-0.337v-0.128c0-0.127 0.012-0.239 0.037-0.335 0.025-0.098 0.061-0.179 0.108-0.245s0.106-0.117 0.173-0.149c0.068-0.035 0.145-0.052 0.231-0.052s0.164 0.017 0.232 0.052c0.069 0.033 0.127 0.084 0.173 0.149s0.084 0.147 0.108 0.245c0.025 0.097 0.037 0.209 0.037 0.335z"></path>
</symbol>
<symbol id="icon-linkedin-1" viewBox="0 0 32 32">
<path fill="#f4f4fd" style="fill: var(--color8, #f4f4fd)" d="M31.992 32v-0.001h0.008v-11.736c0-5.741-1.236-10.164-7.948-10.164-3.227 0-5.392 1.771-6.276 3.449h-0.093v-2.913h-6.364v21.364h6.627v-10.579c0-2.785 0.528-5.479 3.977-5.479 3.399 0 3.449 3.179 3.449 5.657v10.401h6.62z"></path>
<path fill="#f4f4fd" style="fill: var(--color8, #f4f4fd)" d="M0.528 10.636h6.635v21.364h-6.635v-21.364z"></path>
<path fill="#f4f4fd" style="fill: var(--color8, #f4f4fd)" d="M3.843-0c-2.121 0-3.843 1.721-3.843 3.843s1.721 3.879 3.843 3.879c2.121 0 3.843-1.757 3.843-3.879-0.001-2.121-1.723-3.843-3.843-3.843v0z"></path>
</symbol>
<symbol id="icon-facebook-1" viewBox="0 0 32 32">
<path fill="#f4f4fd" style="fill: var(--color8, #f4f4fd)" d="M21.329 5.313h2.921v-5.088c-0.504-0.069-2.237-0.225-4.256-0.225-4.212 0-7.097 2.649-7.097 7.519v4.481h-4.648v5.688h4.648v14.312h5.699v-14.311h4.46l0.708-5.688h-5.169v-3.919c0.001-1.644 0.444-2.769 2.735-2.769z"></path>
</symbol>
<symbol id="icon-twitter-1" viewBox="0 0 32 32">
<path fill="#f4f4fd" style="fill: var(--color8, #f4f4fd)" d="M32 6.078c-1.19 0.522-2.458 0.868-3.78 1.036 1.36-0.812 2.398-2.088 2.886-3.626-1.268 0.756-2.668 1.29-4.16 1.588-1.204-1.282-2.92-2.076-4.792-2.076-3.632 0-6.556 2.948-6.556 6.562 0 0.52 0.044 1.020 0.152 1.496-5.454-0.266-10.28-2.88-13.522-6.862-0.566 0.982-0.898 2.106-0.898 3.316 0 2.272 1.17 4.286 2.914 5.452-1.054-0.020-2.088-0.326-2.964-0.808 0 0.020 0 0.046 0 0.072 0 3.188 2.274 5.836 5.256 6.446-0.534 0.146-1.116 0.216-1.72 0.216-0.42 0-0.844-0.024-1.242-0.112 0.85 2.598 3.262 4.508 6.13 4.57-2.232 1.746-5.066 2.798-8.134 2.798-0.538 0-1.054-0.024-1.57-0.090 2.906 1.874 6.35 2.944 10.064 2.944 12.072 0 18.672-10 18.672-18.668 0-0.29-0.010-0.57-0.024-0.848 1.302-0.924 2.396-2.078 3.288-3.406z"></path>
</symbol>
<symbol id="icon-instagram-1" viewBox="0 0 32 32">
<path fill="#f4f4fd" style="fill: var(--color8, #f4f4fd)" d="M31.969 9.408c-0.075-1.7-0.35-2.869-0.744-3.882-0.406-1.075-1.031-2.038-1.85-2.838-0.8-0.813-1.769-1.444-2.832-1.844-1.019-0.394-2.182-0.669-3.882-0.744-1.713-0.081-2.257-0.1-6.601-0.1s-4.888 0.019-6.595 0.094c-1.7 0.075-2.869 0.35-3.882 0.744-1.075 0.406-2.038 1.031-2.838 1.85-0.813 0.8-1.444 1.769-1.844 2.832-0.394 1.019-0.669 2.182-0.744 3.882-0.081 1.713-0.1 2.257-0.1 6.601s0.019 4.888 0.094 6.595c0.075 1.7 0.35 2.869 0.744 3.882 0.406 1.075 1.038 2.038 1.85 2.838 0.8 0.813 1.769 1.444 2.832 1.844 1.019 0.394 2.182 0.669 3.882 0.744 1.706 0.075 2.25 0.094 6.595 0.094s4.888-0.018 6.595-0.094c1.7-0.075 2.869-0.35 3.882-0.744 2.151-0.831 3.851-2.532 4.682-4.682 0.394-1.019 0.669-2.182 0.744-3.882 0.075-1.707 0.094-2.251 0.094-6.595s-0.006-4.888-0.081-6.595zM29.087 22.473c-0.069 1.563-0.331 2.407-0.55 2.969-0.538 1.394-1.644 2.501-3.038 3.038-0.563 0.219-1.413 0.481-2.969 0.55-1.688 0.075-2.194 0.094-6.464 0.094s-4.782-0.018-6.464-0.094c-1.563-0.069-2.407-0.331-2.969-0.55-0.694-0.256-1.325-0.663-1.838-1.194-0.531-0.519-0.938-1.144-1.194-1.838-0.219-0.563-0.481-1.413-0.55-2.969-0.075-1.688-0.094-2.194-0.094-6.464s0.019-4.782 0.094-6.464c0.069-1.563 0.331-2.407 0.55-2.969 0.256-0.694 0.663-1.325 1.2-1.838 0.519-0.531 1.144-0.938 1.838-1.194 0.563-0.219 1.413-0.481 2.969-0.55 1.688-0.075 2.194-0.094 6.464-0.094 4.276 0 4.782 0.019 6.464 0.094 1.563 0.069 2.407 0.331 2.969 0.55 0.694 0.256 1.325 0.662 1.838 1.194 0.531 0.519 0.938 1.144 1.194 1.838 0.219 0.563 0.481 1.413 0.55 2.969 0.075 1.688 0.094 2.194 0.094 6.464s-0.019 4.77-0.094 6.457z"></path>
<path fill="#f4f4fd" style="fill: var(--color8, #f4f4fd)" d="M16.059 7.782c-4.538 0-8.22 3.682-8.22 8.22s3.682 8.22 8.22 8.22c4.538 0 8.22-3.682 8.22-8.22s-3.682-8.22-8.22-8.22zM16.059 21.335c-2.944 0-5.332-2.388-5.332-5.332s2.388-5.332 5.332-5.332c2.944 0 5.332 2.388 5.332 5.332s-2.388 5.332-5.332 5.332z"></path>
<path fill="#f4f4fd" style="fill: var(--color8, #f4f4fd)" d="M26.524 7.457c0 1.060-0.859 1.919-1.919 1.919s-1.919-0.859-1.919-1.919c0-1.060 0.859-1.919 1.919-1.919s1.919 0.859 1.919 1.919z"></path>
</symbol>
<symbol id="icon-astronaut-1" viewBox="0 0 32 32">
<path fill="#4d5ae5" style="fill: var(--color9, #4d5ae5)" d="M31.974 4.524c-0.063-0.193-0.229-0.333-0.43-0.363l-1.91-0.278-0.855-1.731c-0.179-0.365-0.777-0.365-0.956 0l-0.855 1.731-1.91 0.278c-0.201 0.029-0.367 0.17-0.431 0.363-0.062 0.193-0.011 0.405 0.135 0.547l1.383 1.348-0.326 1.903c-0.034 0.2 0.048 0.402 0.212 0.522 0.166 0.121 0.382 0.135 0.562 0.040l1.709-0.899 1.709 0.899c0.078 0.041 0.164 0.061 0.249 0.061 0.11 0 0.221-0.034 0.314-0.102 0.164-0.119 0.246-0.322 0.212-0.522l-0.326-1.903 1.383-1.348c0.145-0.142 0.197-0.354 0.135-0.547zM29.511 5.851c-0.125 0.122-0.183 0.299-0.153 0.472l0.191 1.114-1-0.526c-0.078-0.041-0.163-0.061-0.249-0.061s-0.17 0.020-0.249 0.061l-1.001 0.526 0.191-1.114c0.030-0.173-0.028-0.349-0.153-0.472l-0.81-0.789 1.119-0.163c0.174-0.025 0.324-0.134 0.402-0.292l0.5-1.013 0.5 1.013c0.078 0.157 0.228 0.267 0.402 0.292l1.119 0.163-0.809 0.789z"></path>
<path fill="#4d5ae5" style="fill: var(--color9, #4d5ae5)" d="M26.134 20.522h-1.067v1.067h1.067v-1.067z"></path>
<path fill="#4d5ae5" style="fill: var(--color9, #4d5ae5)" d="M26.134 22.656h-1.067v1.067h1.067v-1.067z"></path>
<path fill="#4d5ae5" style="fill: var(--color9, #4d5ae5)" d="M27.2 21.589h-1.067v1.067h1.067v-1.067z"></path>
<path fill="#4d5ae5" style="fill: var(--color9, #4d5ae5)" d="M25.067 21.589h-1.067v1.067h1.067v-1.067z"></path>
<path fill="#4d5ae5" style="fill: var(--color9, #4d5ae5)" d="M22.4 26.389h-1.067v1.067h1.067v-1.067z"></path>
<path fill="#4d5ae5" style="fill: var(--color9, #4d5ae5)" d="M22.4 28.522h-1.067v1.067h1.067v-1.067z"></path>
<path fill="#4d5ae5" style="fill: var(--color9, #4d5ae5)" d="M23.467 27.456h-1.067v1.067h1.067v-1.067z"></path>
<path fill="#4d5ae5" style="fill: var(--color9, #4d5ae5)" d="M21.333 27.456h-1.067v1.067h1.067v-1.067z"></path>
<path fill="#4d5ae5" style="fill: var(--color9, #4d5ae5)" d="M16 24.256h-1.067v1.067h1.067v-1.067z"></path>
<path fill="#4d5ae5" style="fill: var(--color9, #4d5ae5)" d="M16 26.389h-1.067v1.067h1.067v-1.067z"></path>
<path fill="#4d5ae5" style="fill: var(--color9, #4d5ae5)" d="M17.067 25.322h-1.067v1.067h1.067v-1.067z"></path>
<path fill="#4d5ae5" style="fill: var(--color9, #4d5ae5)" d="M14.933 25.322h-1.067v1.067h1.067v-1.067z"></path>
<path fill="#4d5ae5" style="fill: var(--color9, #4d5ae5)" d="M5.867 6.122h-1.067v1.067h1.067v-1.067z"></path>
<path fill="#4d5ae5" style="fill: var(--color9, #4d5ae5)" d="M5.867 8.255h-1.067v1.067h1.067v-1.067z"></path>
<path fill="#4d5ae5" style="fill: var(--color9, #4d5ae5)" d="M6.933 7.189h-1.067v1.067h1.067v-1.067z"></path>
<path fill="#4d5ae5" style="fill: var(--color9, #4d5ae5)" d="M4.8 7.189h-1.067v1.067h1.067v-1.067z"></path>
<path fill="#2e2f42" style="fill: var(--color5, #2e2f42)" d="M24.715 14.159c-0.287-0.388-0.709-0.637-1.188-0.705-0.481-0.068-0.956 0.058-1.34 0.352l-1.252 0.96-1.898 1.417-1.358-0.541c2.421-1.086 4.114-3.508 4.114-6.32 0-3.823-3.123-6.933-6.961-6.933s-6.961 3.11-6.961 6.933c0 1.386 0.414 2.674 1.12 3.758l-2.764-0.024c-0.002 0-0.003 0-0.005 0-0.009 0-0.015 0.004-0.023 0.005-0.053 0.002-0.105 0.013-0.155 0.031-0.013 0.005-0.026 0.008-0.038 0.013-0.006 0.003-0.013 0.003-0.019 0.006l-3.233 1.596c-0.001 0-0.001 0-0.001 0.001l-1.893 0.911c-0.021 0.009-0.042 0.021-0.063 0.035-0.755 0.502-1.012 1.489-0.598 2.295 0.22 0.429 0.595 0.745 1.056 0.889 0.178 0.055 0.359 0.083 0.539 0.083 0.29 0 0.577-0.071 0.839-0.211l1.388-0.738 2.264-1.169 1.357-0.008-5.442 5.416c-0.001 0.001-0.001 0.001-0.002 0.001l-1.339 1.333c-0.316 0.315-0.49 0.732-0.49 1.178s0.174 0.863 0.49 1.179c0.325 0.323 0.752 0.485 1.179 0.485s0.854-0.162 1.18-0.485l1.314-1.309 1.741-1.3 0.901 0.897-1.762 1.754c-0 0.001-0.001 0.001-0.002 0.001l-1.339 1.333c-0.316 0.315-0.49 0.732-0.49 1.178s0.174 0.863 0.49 1.179c0.325 0.323 0.753 0.485 1.18 0.485s0.855-0.162 1.18-0.485l3.482-3.467c0.001-0.001 0.001-0.001 0.001-0.002l1.010-1-0.004-0.004c0.006-0.006 0.015-0.009 0.022-0.015l5.166-5.658 3.471 0.494c0.025 0.004 0.050 0.005 0.075 0.005 0.065 0 0.127-0.015 0.187-0.038 0.018-0.006 0.033-0.015 0.050-0.023 0.019-0.010 0.039-0.015 0.058-0.027l3.213-2.133c0.012-0.008 0.018-0.021 0.029-0.029 0.013-0.010 0.029-0.014 0.041-0.026l1.271-1.191c0.662-0.62 0.753-1.635 0.212-2.362zM2.13 17.77c-0.173 0.093-0.37 0.111-0.558 0.052-0.187-0.058-0.338-0.186-0.427-0.358-0.161-0.314-0.068-0.695 0.214-0.902l1.314-0.632 0.449 1.313-0.992 0.527zM5.628 15.942l-1.548 0.8-0.439-1.283 2.027-1.001-0.040 1.484zM20.727 9.322c0 0.918-0.219 1.785-0.599 2.559l-4.181-1.899c-0.044-0.573-0.341-1.075-0.788-1.388l1.464-4.86c2.378 0.756 4.105 2.974 4.105 5.588zM8.938 9.322c0-3.235 2.644-5.867 5.894-5.867 0.253 0 0.5 0.021 0.745 0.052l-1.432 4.754c-0.019-0.001-0.037-0.006-0.057-0.006-1.033 0-1.873 0.837-1.873 1.867s0.84 1.867 1.873 1.867c0.694 0 1.294-0.383 1.618-0.945l3.862 1.755c-1.075 1.446-2.795 2.39-4.737 2.39-3.25 0-5.894-2.632-5.894-5.867zM14.894 10.122c0 0.441-0.362 0.8-0.806 0.8s-0.806-0.359-0.806-0.8c0-0.441 0.362-0.8 0.806-0.8s0.806 0.359 0.806 0.8zM2.465 25.146c-0.236 0.234-0.619 0.234-0.854 0.001-0.114-0.114-0.176-0.263-0.176-0.423s0.062-0.309 0.176-0.421l0.962-0.958 0.851 0.848-0.959 0.955zM5.679 28.88c-0.236 0.234-0.619 0.235-0.855 0.001-0.114-0.114-0.176-0.263-0.176-0.423s0.062-0.309 0.176-0.421l0.963-0.959 0.852 0.848-0.96 0.955zM9.16 25.411c-0.001 0-0.001 0-0.002 0.001l-1.765 1.76-0.852-0.848 1.763-1.755c0 0 0 0 0-0s0.001-0.001 0.002-0.001c0.040-0.040 0.065-0.088 0.090-0.135 0.007-0.014 0.020-0.026 0.026-0.040 0.017-0.041 0.019-0.085 0.026-0.129 0.003-0.025 0.014-0.047 0.014-0.073 0-0.036-0.013-0.070-0.020-0.106-0.006-0.032-0.006-0.065-0.019-0.095-0.020-0.050-0.055-0.094-0.091-0.138-0.010-0.012-0.014-0.027-0.025-0.038 0 0 0 0-0.001 0s-0.001-0.002-0.001-0.002l-1.607-1.6c-0.017-0.017-0.039-0.024-0.058-0.038-0.028-0.022-0.055-0.042-0.087-0.058-0.030-0.015-0.061-0.024-0.093-0.033-0.034-0.010-0.067-0.017-0.103-0.020-0.033-0.002-0.063 0.001-0.095 0.005-0.036 0.004-0.069 0.009-0.104 0.020-0.034 0.011-0.063 0.027-0.094 0.045-0.020 0.011-0.042 0.015-0.061 0.029l-1.773 1.324-0.901-0.897 2.399-2.386 4.361 4.289-0.928 0.919zM15.979 18.394c-0.015-0.002-0.030 0.004-0.045 0.003-0.039-0.002-0.076 0.001-0.115 0.007-0.030 0.005-0.059 0.011-0.088 0.021-0.034 0.012-0.065 0.028-0.097 0.047-0.030 0.018-0.057 0.037-0.083 0.061-0.013 0.011-0.028 0.017-0.040 0.029l-4.698 5.146-4.328-4.257 2.833-2.818c0.209-0.208 0.21-0.546 0.002-0.755-0.105-0.105-0.243-0.157-0.381-0.156v-0.001l-2.219 0.013 0.028-1.607 3.104 0.027c1.265 1.294 3.029 2.101 4.981 2.101 0.437 0 0.864-0.045 1.279-0.123 0.040 0.032 0.079 0.065 0.13 0.085l2.41 0.96 0.152 0.758 0.178 0.885-3.003-0.427zM20.020 18.572l-0.313-1.558 1.446-1.080 0.947 1.257-2.080 1.381zM23.774 15.741l-0.838 0.785-0.931-1.236 0.831-0.637c0.155-0.119 0.351-0.168 0.543-0.143 0.193 0.027 0.364 0.128 0.48 0.284 0.217 0.292 0.18 0.699-0.085 0.947z"></path>
<path fill="#2e2f42" style="fill: var(--color5, #2e2f42)" d="M13.602 18.544l-2.143-2.133c-0.207-0.207-0.545-0.207-0.753 0l-2.142 2.133c-0.1 0.101-0.157 0.236-0.157 0.378s0.056 0.278 0.157 0.378l2.142 2.133c0.104 0.103 0.241 0.155 0.377 0.155s0.273-0.052 0.376-0.155l2.143-2.133c0.1-0.1 0.157-0.236 0.157-0.378s-0.057-0.278-0.157-0.378zM11.083 20.303l-1.387-1.381 1.387-1.381 1.387 1.381-1.387 1.381z"></path>
<path fill="#2e2f42" style="fill: var(--color5, #2e2f42)" d="M17.164 5.071l-0.258 1.036c0.071 0.018 1.738 0.452 1.738 2.149h1.067c-0-2.017-1.666-2.965-2.547-3.185z"></path>
<path fill="#2e2f42" style="fill: var(--color5, #2e2f42)" d="M19.711 9.322h-1.067v1.067h1.067v-1.067z"></path>
</symbol>
<symbol id="icon-diagram-1" viewBox="0 0 32 32">
<path fill="#4d5ae5" style="fill: var(--color9, #4d5ae5)" d="M14.926 14.965h1.066v4.798h-1.066v-4.797z"></path>
<path fill="#4d5ae5" style="fill: var(--color9, #4d5ae5)" d="M19.19 17.097h1.066v2.665h-1.066v-2.665z"></path>
<path fill="#4d5ae5" style="fill: var(--color9, #4d5ae5)" d="M10.661 18.696h1.066v1.066h-1.066v-1.066z"></path>
<path fill="#4d5ae5" style="fill: var(--color9, #4d5ae5)" d="M7.463 18.163h1.066v1.599h-1.066v-1.599z"></path>
<path fill="#2e2f42" style="fill: var(--color5, #2e2f42)" d="M1.599 28.291h25.587c0.883 0 1.599-0.716 1.599-1.599v-2.132c0-0.883-0.716-1.599-1.599-1.599h-0.533v-13.293l3.028-2.868c0.703 0.346 1.553 0.136 2.013-0.499s0.396-1.508-0.152-2.068-1.42-0.644-2.065-0.198c-0.644 0.446-0.873 1.292-0.542 2.002l-2.281 2.163v-1.23c0-0.883-0.716-1.599-1.599-1.599h-21.322c-0.883 0-1.599 0.716-1.599 1.599v15.992h-0.533c-0.883 0-1.599 0.716-1.599 1.599v2.132c0 0.883 0.716 1.599 1.599 1.599zM30.384 4.837c0.294 0 0.533 0.239 0.533 0.533s-0.239 0.533-0.533 0.533c-0.294 0-0.533-0.239-0.533-0.533s0.239-0.533 0.533-0.533zM3.198 6.969c0-0.294 0.239-0.533 0.533-0.533h21.322c0.294 0 0.533 0.239 0.533 0.533v2.239l-1.066 1.013v-2.186c0-0.294-0.239-0.533-0.533-0.533h-19.19c-0.294 0-0.533 0.239-0.533 0.533v13.326c0 0.294 0.239 0.533 0.533 0.533h19.19c0.294 0 0.533-0.239 0.533-0.533v-9.674l1.066-1.010v12.284h-22.388v-15.992zM7.996 13.899c-0.721-0.002-1.354 0.478-1.546 1.174s0.105 1.433 0.725 1.801c0.62 0.368 1.41 0.276 1.928-0.226l1.853 0.93c0.215 0.108 0.476 0.057 0.636-0.123l3.939-4.431 3.872 2.901c0.208 0.156 0.498 0.139 0.686-0.039l3.365-3.188v8.131h-18.124v-12.26h18.124v2.66l-3.771 3.572-3.904-2.927c-0.222-0.166-0.534-0.135-0.718 0.072l-3.993 4.493-1.493-0.746c0.011-0.064 0.018-0.129 0.020-0.193 0-0.883-0.716-1.599-1.599-1.599zM8.529 15.498c0 0.294-0.239 0.533-0.533 0.533s-0.533-0.239-0.533-0.533c0-0.294 0.239-0.533 0.533-0.533s0.533 0.239 0.533 0.533zM11.727 24.027h5.331v0.533c0 0.294-0.239 0.533-0.533 0.533h-4.264c-0.294 0-0.533-0.239-0.533-0.533v-0.533zM1.066 24.56c0-0.294 0.239-0.533 0.533-0.533h9.062v0.533c0 0.883 0.716 1.599 1.599 1.599h4.264c0.883 0 1.599-0.716 1.599-1.599v-0.533h9.062c0.294 0 0.533 0.239 0.533 0.533v2.132c0 0.294-0.239 0.533-0.533 0.533h-25.587c-0.294 0-0.533-0.239-0.533-0.533v-2.132z"></path>
</symbol>
<symbol id="icon-clock-1" viewBox="0 0 32 32">
<path fill="#2e2f42" style="fill: var(--color5, #2e2f42)" d="M31.297 15.301c-0.002-8.452-6.855-15.303-15.308-15.301s-15.303 6.855-15.301 15.308c0.001 6.658 4.307 12.551 10.649 14.576 0.061 0.019 0.124 0.029 0.187 0.029 0.121-0 0.239-0.032 0.342-0.094 0.135-0.080 0.236-0.207 0.283-0.356l3.865-12.25c1.057-0.005 1.909-0.866 1.903-1.923s-0.866-1.909-1.923-1.903c-0.284 0.001-0.565 0.067-0.82 0.191l-5.106-5.107c-0.253-0.245-0.657-0.238-0.902 0.016-0.239 0.247-0.239 0.639 0 0.886l5.103 5.109c-0.392 0.799-0.168 1.764 0.536 2.309l-3.683 11.673c-7.278-2.681-11.004-10.754-8.323-18.032s10.754-11.004 18.032-8.323c7.278 2.681 11.004 10.754 8.323 18.032-1.31 3.556-4.001 6.431-7.462 7.973l-0.398-1.874c-0.073-0.345-0.411-0.565-0.756-0.492-0.109 0.023-0.209 0.074-0.293 0.148l-3.837 3.426c-0.263 0.234-0.287 0.637-0.052 0.9 0.076 0.085 0.174 0.149 0.283 0.184l4.899 1.564c0.335 0.108 0.694-0.077 0.802-0.412 0.034-0.106 0.040-0.219 0.017-0.328l-0.391-1.839c5.664-2.388 9.342-7.942 9.329-14.089zM15.992 14.664c0.352 0 0.638 0.286 0.638 0.638s-0.286 0.638-0.638 0.638c-0.352 0-0.638-0.285-0.638-0.638s0.285-0.638 0.638-0.638zM18.093 29.528l2.184-1.948 0.603 2.84-2.787-0.892z"></path>
<path fill="#4d5ae5" style="fill: var(--color9, #4d5ae5)" d="M15.354 3.185v1.275c0 0.352 0.285 0.638 0.638 0.638s0.638-0.285 0.638-0.638v-1.275c0-0.352-0.286-0.638-0.638-0.638s-0.638 0.286-0.638 0.638z"></path>
<path fill="#4d5ae5" style="fill: var(--color9, #4d5ae5)" d="M3.876 14.664c-0.352 0-0.638 0.286-0.638 0.638s0.285 0.638 0.638 0.638h1.275c0.352 0 0.638-0.285 0.638-0.638s-0.285-0.638-0.638-0.638h-1.275z"></path>
<path fill="#4d5ae5" style="fill: var(--color9, #4d5ae5)" d="M28.108 15.939c0.352 0 0.638-0.285 0.638-0.638s-0.285-0.638-0.638-0.638h-1.275c-0.352 0-0.638 0.286-0.638 0.638s0.286 0.638 0.638 0.638h1.275z"></path>
</symbol>
<symbol id="icon-antenna-1" viewBox="0 0 32 32">
<path fill="#2e2f42" style="fill: var(--color5, #2e2f42)" d="M30.773 22.098l-8.443-8.505 0.937-4.615c0.242 0.094 0.499 0.144 0.758 0.146h0.006c1.192 0.014 2.17-0.941 2.184-2.133s-0.941-2.17-2.133-2.184c-1.192-0.014-2.17 0.941-2.184 2.133-0.003 0.255 0.039 0.509 0.125 0.749l-4.96 0.605-8.091-8.133c-0.099-0.101-0.235-0.159-0.377-0.16-0.14 0.001-0.274 0.056-0.373 0.155l-1.513 1.504c-0.208 0.208-0.208 0.546 0 0.754l0.814 0.826c-3.153 5.798-2.129 12.978 2.519 17.663 0.043 0.041 0.092 0.074 0.146 0.098-0.034 0.18-0.051 0.364-0.052 0.547v6.187h-6.4c-1.472 0.002-2.665 1.195-2.667 2.667v1.067c0 0.295 0.239 0.533 0.533 0.533h24.533c0.295 0 0.533-0.239 0.533-0.533v-1.067c-0.002-1.472-1.195-2.665-2.667-2.667h-6.4v-2.742c1.003 0.21 2.024 0.317 3.049 0.32 2.458-0.003 4.877-0.615 7.040-1.783l0.818 0.823c0.099 0.101 0.235 0.159 0.377 0.16 0.14-0.001 0.274-0.056 0.373-0.155l1.513-1.504c0.208-0.208 0.208-0.546 0-0.754zM23.28 6.233c0.418-0.415 1.093-0.414 1.509 0.004s0.414 1.093-0.004 1.508c-0.2 0.199-0.47 0.31-0.752 0.31h-0.003c-0.589-0.003-1.064-0.483-1.061-1.072 0.002-0.282 0.115-0.552 0.314-0.751h-0.002zM22.024 9.738l-0.598 2.946-1.175-1.182 1.774-1.763zM21.419 8.836l-1.92 1.909-1.485-1.493 3.405-0.415zM24.004 28.8c0.884 0 1.6 0.716 1.6 1.6v0.533h-23.467v-0.533c0-0.884 0.716-1.6 1.6-1.6h20.267zM16.537 26.667v1.067h-5.333v-1.067h5.333zM11.204 25.6v-4.053c0-1.294 1.196-2.347 2.667-2.347s2.667 1.053 2.667 2.347v4.053h-5.333zM17.604 23.904v-2.357c0-1.882-1.675-3.413-3.733-3.413-1.331-0.020-2.576 0.657-3.281 1.786-4.058-4.274-4.971-10.645-2.279-15.887l18.602 18.708c-2.872 1.461-6.165 1.873-9.309 1.163zM28.893 23.22l-21.057-21.181 0.755-0.752 7.935 7.98c0.004 0 0.006 0.007 0.010 0.010l13.115 13.191-0.757 0.752z"></path>
<path fill="#4d5ae5" style="fill: var(--color9, #4d5ae5)" d="M13.876 20.267h-0.005c-0.884-0.001-1.601 0.714-1.602 1.598s0.714 1.601 1.598 1.602h0.005c0.884 0.001 1.601-0.714 1.602-1.598s-0.714-1.601-1.598-1.602zM14.249 22.245c-0.1 0.1-0.236 0.156-0.378 0.155-0.295-0.002-0.532-0.242-0.531-0.536 0.001-0.141 0.057-0.276 0.157-0.375s0.233-0.154 0.373-0.155c0.295 0.002 0.532 0.242 0.531 0.536-0.001 0.141-0.057 0.276-0.157 0.375h0.005z"></path>
</symbol>
</defs>
</svg>
